<svg width="941" height="188" viewBox="0 0 941 188" fill="none" xmlns="http://www.w3.org/2000/svg">
<path d="M0.150024 157.992V58.6916H71.85V69.4916H11.4V103.992H65.25V114.942H11.4V157.992H0.150024Z" fill="black"/>
<path d="M107.154 159.192C99.8539 159.192 93.4539 157.492 87.9539 154.092C82.5539 150.592 78.3539 145.892 75.3539 139.992C72.3539 134.092 70.8539 127.592 70.8539 120.492C70.8539 113.292 72.3539 106.792 75.3539 100.992C78.3539 95.0916 82.5539 90.4416 87.9539 87.0416C93.4539 83.5416 99.8539 81.7916 107.154 81.7916C113.354 81.7916 118.654 82.9916 123.054 85.3916C127.554 87.7916 131.204 91.0416 134.004 95.1416V82.9916H145.254V157.992H134.004V145.992C131.204 149.992 127.554 153.192 123.054 155.592C118.654 157.992 113.354 159.192 107.154 159.192ZM108.654 148.992C114.254 148.992 118.954 147.692 122.754 145.092C126.654 142.492 129.604 139.042 131.604 134.742C133.604 130.342 134.604 125.592 134.604 120.492C134.604 115.292 133.604 110.542 131.604 106.242C129.604 101.942 126.654 98.4916 122.754 95.8916C118.954 93.2916 114.254 91.9916 108.654 91.9916C103.154 91.9916 98.4039 93.2916 94.4039 95.8916C90.4039 98.4916 87.3539 101.942 85.2539 106.242C83.1539 110.542 82.1039 115.292 82.1039 120.492C82.1039 125.592 83.1539 130.342 85.2539 134.742C87.3539 139.042 90.4039 142.492 94.4039 145.092C98.4039 147.692 103.154 148.992 108.654 148.992Z" fill="black"/>
<path d="M157.213 157.992V82.9916H168.463V94.6916C171.163 91.0916 174.463 88.0416 178.363 85.5416C182.263 83.0416 187.263 81.7916 193.363 81.7916C198.563 81.7916 203.413 83.0416 207.913 85.5416C212.513 87.9416 216.213 91.5916 219.013 96.4916C221.913 101.292 223.363 107.242 223.363 114.342V157.992H212.113V114.642C212.113 107.842 210.163 102.392 206.263 98.2916C202.363 94.0916 197.313 91.9916 191.113 91.9916C186.913 91.9916 183.113 92.9416 179.713 94.8416C176.313 96.7416 173.563 99.4416 171.463 102.942C169.463 106.342 168.463 110.292 168.463 114.792V157.992H157.213Z" fill="black"/>
<path d="M241.016 157.992V92.8916H225.716V82.9916H241.016V56.1416H252.266V82.9916H269.516V92.8916H252.266V157.992H241.016Z" fill="black"/>
<path d="M304.527 159.192C297.227 159.192 290.827 157.492 285.327 154.092C279.927 150.592 275.727 145.892 272.727 139.992C269.727 134.092 268.227 127.592 268.227 120.492C268.227 113.292 269.727 106.792 272.727 100.992C275.727 95.0916 279.927 90.4416 285.327 87.0416C290.827 83.5416 297.227 81.7916 304.527 81.7916C310.727 81.7916 316.027 82.9916 320.427 85.3916C324.927 87.7916 328.577 91.0416 331.377 95.1416V82.9916H342.627V157.992H331.377V145.992C328.577 149.992 324.927 153.192 320.427 155.592C316.027 157.992 310.727 159.192 304.527 159.192ZM306.027 148.992C311.627 148.992 316.327 147.692 320.127 145.092C324.027 142.492 326.977 139.042 328.977 134.742C330.977 130.342 331.977 125.592 331.977 120.492C331.977 115.292 330.977 110.542 328.977 106.242C326.977 101.942 324.027 98.4916 320.127 95.8916C316.327 93.2916 311.627 91.9916 306.027 91.9916C300.527 91.9916 295.777 93.2916 291.777 95.8916C287.777 98.4916 284.727 101.942 282.627 106.242C280.527 110.542 279.477 115.292 279.477 120.492C279.477 125.592 280.527 130.342 282.627 134.742C284.727 139.042 287.777 142.492 291.777 145.092C295.777 147.692 300.527 148.992 306.027 148.992Z" fill="black"/>
<path d="M381.886 159.192C374.986 159.192 369.136 158.042 364.336 155.742C359.636 153.442 356.036 150.442 353.536 146.742C351.036 142.942 349.636 138.842 349.336 134.442H361.036C361.336 136.942 362.186 139.392 363.586 141.792C365.086 144.092 367.336 145.992 370.336 147.492C373.336 148.892 377.236 149.592 382.036 149.592C383.536 149.592 385.386 149.442 387.586 149.142C389.786 148.842 391.886 148.292 393.886 147.492C395.986 146.692 397.736 145.492 399.136 143.892C400.536 142.292 401.236 140.242 401.236 137.742C401.236 134.642 400.036 132.242 397.636 130.542C395.236 128.842 392.136 127.542 388.336 126.642C384.536 125.642 380.486 124.692 376.186 123.792C371.986 122.892 367.986 121.742 364.186 120.342C360.386 118.842 357.286 116.792 354.886 114.192C352.486 111.492 351.286 107.842 351.286 103.242C351.286 96.4416 353.736 91.1916 358.636 87.4916C363.636 83.6916 370.986 81.7916 380.686 81.7916C387.286 81.7916 392.636 82.8416 396.736 84.9416C400.936 86.9416 404.086 89.5416 406.186 92.7416C408.386 95.9416 409.686 99.3916 410.086 103.092H398.686C398.286 99.8916 396.686 97.1416 393.886 94.8416C391.186 92.5416 386.686 91.3916 380.386 91.3916C368.486 91.3916 362.536 94.9916 362.536 102.192C362.536 105.192 363.736 107.492 366.136 109.092C368.536 110.692 371.636 111.992 375.436 112.992C379.236 113.892 383.236 114.792 387.436 115.692C391.736 116.492 395.786 117.642 399.586 119.142C403.386 120.642 406.486 122.792 408.886 125.592C411.286 128.292 412.486 131.992 412.486 136.692C412.486 143.992 409.686 149.592 404.086 153.492C398.586 157.292 391.186 159.192 381.886 159.192Z" fill="black"/>
<path d="M427.249 187.692L440.899 156.942L410.299 82.9916H422.749L446.899 144.492L471.499 82.9916H483.799L439.399 187.692H427.249Z" fill="black"/>
<path d="M532 159.992L504.56 78.0916H504C504.093 79.9583 504.233 82.6183 504.42 86.0716C504.607 89.4316 504.747 93.1183 504.84 97.1316C505.027 101.052 505.12 104.738 505.12 108.192V159.992H489.02V60.0316H513.94L540.26 138.572H540.82L568.26 60.0316H593.18V159.992H576.1V107.352C576.1 104.178 576.147 100.725 576.24 96.9916C576.427 93.165 576.567 89.5716 576.66 86.2116C576.847 82.7583 576.987 80.0983 577.08 78.2316H576.52L547.96 159.992H532Z" fill="black"/>
<path d="M640.6 82.7116C650.4 82.7116 657.82 84.8583 662.86 89.1516C667.993 93.3516 670.56 99.9783 670.56 109.032V159.992H658.1L654.6 149.492H654.04C651.893 152.198 649.653 154.485 647.32 156.352C645.08 158.125 642.466 159.385 639.48 160.132C636.586 160.972 633.04 161.392 628.84 161.392C624.36 161.392 620.3 160.552 616.66 158.872C613.113 157.192 610.313 154.625 608.26 151.172C606.206 147.625 605.18 143.192 605.18 137.872C605.18 130.032 608.026 124.152 613.72 120.232C619.506 116.218 628.233 114.025 639.9 113.652L653.06 113.232V109.452C653.06 104.598 651.893 101.145 649.56 99.0916C647.226 97.0383 643.96 96.0116 639.76 96.0116C635.933 96.0116 632.246 96.5716 628.7 97.6916C625.153 98.8116 621.7 100.118 618.34 101.612L612.74 89.2916C616.473 87.3316 620.72 85.745 625.48 84.5316C630.333 83.3183 635.373 82.7116 640.6 82.7116ZM643.82 124.432C636.073 124.712 630.706 126.065 627.72 128.492C624.733 130.825 623.24 133.998 623.24 138.012C623.24 141.558 624.313 144.125 626.46 145.712C628.606 147.298 631.36 148.092 634.72 148.092C639.853 148.092 644.193 146.645 647.74 143.752C651.286 140.765 653.06 136.378 653.06 130.592V124.152L643.82 124.432Z" fill="black"/>
<path d="M703.164 104.132C703.164 106.558 703.071 109.125 702.884 111.832C702.698 114.445 702.511 117.012 702.324 119.532H702.744C703.491 118.412 704.378 117.198 705.404 115.892C706.431 114.492 707.458 113.138 708.484 111.832C709.604 110.432 710.678 109.172 711.704 108.052L734.104 84.1116H754.124L723.744 116.872L756.084 159.992H735.504L711.984 127.512L703.164 134.792V159.992H685.664V53.5916H703.164V104.132Z" fill="black"/>
<path d="M791.489 82.7116C798.302 82.7116 804.136 84.1116 808.989 86.9116C813.936 89.6183 817.762 93.5383 820.469 98.6716C823.176 103.712 824.529 109.872 824.529 117.152V126.112H774.409C774.596 133.018 776.509 138.385 780.149 142.212C783.789 145.945 788.829 147.812 795.269 147.812C800.216 147.812 804.602 147.345 808.429 146.412C812.349 145.385 816.362 143.938 820.469 142.072V156.212C816.736 157.985 812.862 159.292 808.849 160.132C804.836 160.972 800.029 161.392 794.429 161.392C787.056 161.392 780.476 159.992 774.689 157.192C768.996 154.298 764.516 149.958 761.249 144.172C758.076 138.385 756.489 131.198 756.489 122.612C756.489 113.932 757.936 106.652 760.829 100.772C763.816 94.7983 767.922 90.3183 773.149 87.3316C778.376 84.2516 784.489 82.7116 791.489 82.7116ZM791.489 95.7316C786.822 95.7316 782.996 97.2716 780.009 100.352C777.116 103.338 775.389 107.818 774.829 113.792H807.449C807.449 110.245 806.842 107.118 805.629 104.412C804.509 101.705 802.782 99.605 800.449 98.1116C798.116 96.525 795.129 95.7316 791.489 95.7316Z" fill="black"/>
<path d="M875.077 82.7116C876.197 82.7116 877.503 82.7583 878.997 82.8516C880.49 82.945 881.75 83.1316 882.777 83.4116L881.237 99.7916C880.397 99.605 879.277 99.465 877.877 99.3716C876.57 99.185 875.403 99.0916 874.377 99.0916C871.577 99.0916 868.87 99.5583 866.257 100.492C863.737 101.332 861.45 102.638 859.397 104.412C857.437 106.092 855.85 108.285 854.637 110.992C853.517 113.698 852.957 116.918 852.957 120.652V159.992H835.317V84.1116H848.897L851.417 97.2716H852.257C853.75 94.565 855.617 92.1383 857.857 89.9916C860.097 87.7516 862.663 85.9783 865.557 84.6716C868.543 83.365 871.717 82.7116 875.077 82.7116Z" fill="black"/>
<path d="M878.424 124.135L901.504 129.571L907.107 155.771L916.825 130.088H939.633L925.697 115.727L932.071 97.7148L914.728 108.578L896.836 97.2365L901.696 115.401L878.424 124.135Z" fill="#DCC94C"/>
<path d="M794.466 23.8562L806.872 44.0635L792.23 66.5006L819.385 58.4855L833.372 71.4836L833.742 51.476L851.015 43.3064L831.086 38.6548L826.526 17.9673L817.062 34.216L794.466 23.8562Z" fill="#DCC94C"/>
<path d="M921.927 0.0596924L908.936 19.8958L882.398 16.214L899.188 29.6216L895.428 55.5554L906.188 43.1216L928.437 59.5042L924.15 39.4942L940.92 26.5509L922.188 24.9157L921.927 0.0596924Z" fill="#DCC94C"/>
</svg>
